<svg id="Layer_1" data-name="Layer 1" xmlns="http://www.w3.org/2000/svg" viewBox="0 0 1080 1080"><defs><style>.cls-1{fill:#1c1c1c;}.cls-2{fill:#fff;}</style></defs><title>logo bt light</title><rect class="cls-1" width="1080" height="1080" rx="352.8"/><path class="cls-2" d="M558.13,423.57H449.37V652.23a90.63,90.63,0,0,0,181.26,0V603.71a14.29,14.29,0,0,1,28.57,0v48.52a119.2,119.2,0,0,1-238.4,0V423.57H355.2a14.29,14.29,0,1,1,0-28.57h65.6V349.83a14.29,14.29,0,1,1,28.57,0V395H540V314.29a114.29,114.29,0,1,0-228.57,0V651.43C311.43,777.67,413.76,880,540,880S768.57,777.67,768.57,651.43C768.57,531.29,675.9,432.8,558.13,423.57Z"/></svg>