<svg id="Layer_2" data-name="Layer 2" xmlns="http://www.w3.org/2000/svg" viewBox="0 0 1044.8 1044.8"><defs><style>.cls-1{fill:#161616;}.cls-2{fill:#e5e5e5;}</style></defs><title>Logo</title><circle class="cls-1" cx="522.4" cy="522.4" r="522.4"/><polygon class="cls-2" points="840.7 182.94 204.1 182.94 246.12 226.08 798.68 226.08 840.7 182.94"/><polygon class="cls-2" points="643.55 400.2 643.55 719.71 724.65 800.8 776.55 748.93 776.55 595.24 819.68 633.06 819.68 766.79 776.55 809.92 724.65 861.82 694.14 831.31 600.38 737.54 600.48 737.44 600.42 737.44 600.42 357.58 798.67 357.58 840.69 400.2 643.55 400.2"/><rect class="cls-2" x="726.95" y="842.61" width="0.06" height="43.14" transform="translate(-415.89 751.28) rotate(-45.09)"/><rect class="cls-2" x="735.95" y="864.16" width="43.14" height="0.06" transform="translate(-406.8 771.17) rotate(-45)"/><polygon class="cls-2" points="444.38 737.44 444.27 737.44 444.38 737.54 320.06 861.86 319.56 861.36 319.41 861.48 225.12 767.19 225.12 633.06 268.25 595.24 268.25 749.33 319.91 800.99 401.24 719.66 401.24 400.2 204.1 400.2 246.13 357.58 444.38 357.58 444.38 737.44"/></svg>